<svg width="512" height="512" viewBox="0 0 512 512" fill="none" xmlns="http://www.w3.org/2000/svg">
<path d="M261.558 101.28C260.07 99.8554 258.089 99.0605 256.028 99.0605C253.968 99.0605 251.987 99.8554 250.498 101.28L66.3984 277.15C65.6166 277.898 64.9946 278.796 64.57 279.791C64.1455 280.787 63.9272 281.858 63.9284 282.94L63.8984 448C63.8984 456.487 67.2699 464.626 73.271 470.627C79.2722 476.628 87.4115 480 95.8984 480H191.998C196.242 480 200.312 478.314 203.312 475.313C206.313 472.313 207.998 468.243 207.998 464V328C207.998 325.878 208.841 323.843 210.342 322.343C211.842 320.842 213.877 320 215.998 320H295.998C298.12 320 300.155 320.842 301.655 322.343C303.156 323.843 303.998 325.878 303.998 328V464C303.998 468.243 305.684 472.313 308.685 475.313C311.685 478.314 315.755 480 319.998 480H416.058C424.545 480 432.685 476.628 438.686 470.627C444.687 464.626 448.058 456.487 448.058 448V282.94C448.06 281.858 447.841 280.787 447.417 279.791C446.992 278.796 446.37 277.898 445.588 277.15L261.558 101.28Z" fill="white"/>
<path d="M490.91 244.15L416.11 172.59V64C416.11 59.7565 414.425 55.6869 411.424 52.6863C408.423 49.6857 404.354 48 400.11 48H352.11C347.867 48 343.797 49.6857 340.797 52.6863C337.796 55.6869 336.11 59.7565 336.11 64V96L278.19 40.62C272.77 35.14 264.71 32 256 32C247.32 32 239.28 35.14 233.86 40.63L21.1604 244.13C14.9404 250.13 14.1604 260 19.8204 266.5C21.2417 268.141 22.982 269.475 24.9354 270.422C26.8887 271.368 29.0143 271.908 31.1828 272.007C33.3512 272.106 35.5172 271.763 37.5488 270.999C39.5804 270.234 41.4353 269.064 43.0004 267.56L250.5 69.28C251.989 67.8558 253.97 67.0609 256.03 67.0609C258.091 67.0609 260.072 67.8558 261.56 69.28L469.08 267.56C472.137 270.491 476.232 272.091 480.466 272.009C484.701 271.926 488.73 270.168 491.67 267.12C497.81 260.76 497.3 250.26 490.91 244.15Z" fill="white"/>
</svg>
