<svg width="512" height="512" viewBox="0 0 512 512" fill="none" xmlns="http://www.w3.org/2000/svg">
<path d="M256 304C282.51 304 304 282.51 304 256C304 229.49 282.51 208 256 208C229.49 208 208 229.49 208 256C208 282.51 229.49 304 256 304Z" fill="white"/>
<path d="M470.391 300L469.921 299.62L438.36 274.87C436.362 273.289 434.767 271.256 433.706 268.939C432.646 266.622 432.15 264.086 432.26 261.54V249.98C432.16 247.45 432.662 244.933 433.724 242.635C434.786 240.336 436.379 238.323 438.37 236.76L469.921 212L470.391 211.62C475.256 207.567 478.521 201.915 479.602 195.675C480.683 189.435 479.509 183.014 476.29 177.56L433.58 103.66C433.531 103.59 433.488 103.517 433.451 103.44C430.214 98.0616 425.197 93.9865 419.269 91.9223C413.341 89.8581 406.877 89.9351 401 92.14L400.65 92.27L363.55 107.2C361.209 108.147 358.676 108.524 356.16 108.299C353.644 108.075 351.218 107.256 349.08 105.91C345.8 103.843 342.467 101.89 339.08 100.05C336.885 98.8593 334.999 97.1692 333.577 95.116C332.154 93.0629 331.234 90.7041 330.891 88.23L325.3 48.64L325.18 47.92C323.964 41.788 320.673 36.2617 315.862 32.2699C311.05 28.2782 305.012 26.0642 298.76 26H213.24C206.901 26.0203 200.772 28.2772 195.934 32.373C191.095 36.4689 187.857 42.141 186.79 48.39L186.7 48.95L181.13 88.62C180.789 91.087 179.876 93.4402 178.464 95.4923C177.053 97.5443 175.182 99.2385 173 100.44C169.58 102.28 166.24 104.23 163 106.26C160.867 107.598 158.447 108.411 155.938 108.631C153.43 108.852 150.905 108.475 148.57 107.53L111.44 92.53L111.09 92.39C105.205 90.1827 98.7321 90.1086 92.7977 92.1805C86.8633 94.2524 81.8431 98.3393 78.6105 103.73L78.4805 103.95L35.7105 177.9C32.4868 183.359 31.3102 189.787 32.3911 196.035C33.472 202.282 36.7399 207.941 41.6105 212L42.0805 212.38L73.6405 237.13C75.6391 238.711 77.2341 240.744 78.2945 243.061C79.3549 245.378 79.8505 247.914 79.7405 250.46V262.02C79.8406 264.55 79.339 267.067 78.2768 269.365C77.2146 271.664 75.6222 273.677 73.6305 275.24L42.0805 300L41.6105 300.38C36.7447 304.433 33.4795 310.085 32.3986 316.325C31.3177 322.565 32.4916 328.986 35.7105 334.44L78.4205 408.34C78.4697 408.41 78.5131 408.483 78.5505 408.56C81.7867 413.938 86.8044 418.013 92.7322 420.078C98.66 422.142 105.124 422.065 111 419.86L111.35 419.73L148.42 404.8C150.762 403.853 153.295 403.476 155.811 403.701C158.327 403.925 160.753 404.744 162.89 406.09C166.17 408.163 169.504 410.117 172.89 411.95C175.086 413.141 176.971 414.831 178.394 416.884C179.817 418.937 180.737 421.296 181.08 423.77L186.64 463.36L186.76 464.08C187.98 470.222 191.279 475.756 196.103 479.749C200.926 483.742 206.979 485.95 213.24 486H298.76C305.1 485.98 311.229 483.723 316.067 479.627C320.906 475.531 324.144 469.859 325.21 463.61L325.3 463.05L330.87 423.38C331.218 420.908 332.138 418.552 333.558 416.5C334.979 414.447 336.86 412.756 339.05 411.56C342.47 409.72 345.81 407.77 349.05 405.74C351.184 404.402 353.604 403.589 356.113 403.369C358.621 403.148 361.146 403.525 363.48 404.47L400.61 419.42L400.96 419.56C406.845 421.771 413.32 421.847 419.255 419.775C425.191 417.703 430.211 413.614 433.44 408.22C433.48 408.145 433.523 408.071 433.57 408L476.28 334.11C479.51 328.651 480.691 322.221 479.612 315.971C478.533 309.721 475.264 304.06 470.391 300ZM335.91 259.76C335.182 275.246 329.97 290.186 320.908 302.765C311.846 315.343 299.325 325.018 284.866 330.612C270.408 336.206 254.636 337.479 239.467 334.275C224.299 331.072 210.388 323.53 199.427 312.567C188.465 301.604 180.925 287.693 177.723 272.524C174.522 257.356 175.796 241.583 181.392 227.126C186.988 212.668 196.664 200.148 209.244 191.087C221.823 182.027 236.765 176.816 252.25 176.09C263.368 175.601 274.466 177.43 284.838 181.462C295.211 185.493 304.63 191.639 312.499 199.509C320.367 207.378 326.512 216.799 330.543 227.172C334.573 237.544 336.401 248.642 335.91 259.76Z" fill="white"/>
</svg>
