<svg width="214" height="214" viewBox="0 0 214 214" fill="none" xmlns="http://www.w3.org/2000/svg">
<path fill-rule="evenodd" clip-rule="evenodd" d="M24 0C10.7452 0 0 10.7452 0 24V190C0 203.255 10.7452 214 24 214H190C203.255 214 214 203.255 214 190V24C214 10.7452 203.255 0 190 0H24ZM181.619 204.992L181 205H33C19.9522 205 9.33621 194.588 9.00781 181.619L9 181V33C9 19.7452 19.7452 9 33 9H181L181.619 9.00781C194.588 9.33621 205 19.9522 205 33V181L204.992 181.619C204.669 194.382 194.382 204.669 181.619 204.992ZM181 200C191.493 200 200 191.493 200 181V33C200 22.5066 191.493 14 181 14H33C22.5066 14 14 22.5066 14 33V181C14 191.493 22.5066 200 33 200H181Z" fill="#3297DB"/>
<path d="M49 144V155C49 158.314 51.6863 161 55 161H64C67.3137 161 70 158.314 70 155V144H49Z" fill="white"/>
<path d="M166 144V155C166 158.314 163.314 161 160 161H151C147.686 161 145 158.314 145 155V144H166Z" fill="white"/>
<path fill-rule="evenodd" clip-rule="evenodd" d="M54 94H56.5L63.2639 67C66 57 71.6348 53 80 53H135C143.365 53 149 57 151.736 67L158.5 94H161C168.18 94 174 99.8203 174 107V134C174 137.314 171.314 140 168 140H47C43.6863 140 41 137.314 41 134V107C41 99.8203 46.8203 94 54 94ZM77 61H138C141.351 61 144.152 63.3548 144.839 66.5L151 95H64L70.1611 66.5C70.8478 63.3548 73.6489 61 77 61ZM56.5 122C60.6421 122 64 118.642 64 114.5C64 110.358 60.6421 107 56.5 107C52.3579 107 49 110.358 49 114.5C49 118.642 52.3579 122 56.5 122ZM158.5 122C154.358 122 151 118.642 151 114.5C151 110.358 154.358 107 158.5 107C162.642 107 166 110.358 166 114.5C166 118.642 162.642 122 158.5 122Z" fill="white"/>
<path d="M181 205L181.619 204.992C194.382 204.669 204.669 194.382 204.992 181.619L205 181V33C205 19.9522 194.588 9.33621 181.619 9.00781L181 9H33C19.7452 9 9 19.7452 9 33V181L9.00781 181.619C9.33621 194.588 19.9522 205 33 205H181ZM200 181C200 191.493 191.493 200 181 200H33C22.5066 200 14 191.493 14 181V33C14 22.5066 22.5066 14 33 14H181C191.493 14 200 22.5066 200 33V181Z" fill="white"/>
</svg>
